<?xml version="1.0" encoding="utf-8"?>
<!-- Generator: Adobe Illustrator 16.0.0, SVG Export Plug-In . SVG Version: 6.00 Build 0)  -->
<!DOCTYPE svg PUBLIC "-//W3C//DTD SVG 1.1//EN" "http://www.w3.org/Graphics/SVG/1.1/DTD/svg11.dtd">
<svg version="1.1" id="Layer_1" xmlns="http://www.w3.org/2000/svg" xmlns:xlink="http://www.w3.org/1999/xlink" x="0px" y="0px"
	 width="167.244px" height="169.6px" viewBox="0 0 167.244 169.6" enable-background="new 0 0 167.244 169.6" xml:space="preserve">
<g>
	<g>
		<path fill="#9F9798" d="M24.301,144.416c-10.262,0-18.615,8.385-18.615,18.687c0,1.476,1.188,2.67,2.659,2.67h31.912
			c1.47,0,2.659-1.194,2.659-2.67C42.917,152.801,34.564,144.416,24.301,144.416z M11.273,160.433
			c1.059-5.219,5.17-9.319,10.369-10.384v5.044h5.318v-5.044c5.199,1.067,9.311,5.165,10.369,10.384H11.273z"/>
	</g>
</g>
<g>
	<g>
		<path fill="#9F9798" d="M162.584,120.39h-4.665c-0.146-0.371-0.298-0.74-0.462-1.11l3.301-3.313c1.039-1.043,1.039-2.731,0-3.774
			l-11.282-11.324c-0.55-0.552-1.275-0.792-1.996-0.758c4.215-2.245,7.126-6.642,7.126-11.753V18.947
			c0-7.359-5.964-13.347-13.296-13.347H18.983c-7.332,0-13.296,5.988-13.296,13.347v69.409c0,7.36,5.965,13.348,13.296,13.348
			h34.704L43.64,120.39h-0.724h-3.989c-5.133,0-9.308,4.191-9.308,9.344c0,5.152,4.175,9.344,9.308,9.344h57.174
			c0,1.476,1.189,2.668,2.659,2.668h4.665c0.146,0.372,0.298,0.74,0.463,1.111l-3.3,3.312c-1.04,1.044-1.04,2.731,0,3.775
			l11.281,11.324c1.04,1.043,2.719,1.043,3.76,0l3.301-3.313c0.369,0.166,0.736,0.318,1.105,0.465v4.682
			c0,1.476,1.189,2.67,2.66,2.67h15.956c1.471,0,2.659-1.194,2.659-2.67v-4.682c0.37-0.147,0.736-0.299,1.105-0.465l3.302,3.313
			c1.039,1.043,2.719,1.043,3.759,0l11.282-11.324c1.039-1.044,1.039-2.731,0-3.775l-3.301-3.312
			c0.164-0.372,0.316-0.74,0.462-1.112h4.665c1.471,0,2.659-1.192,2.659-2.668v-16.018
			C165.244,121.583,164.055,120.39,162.584,120.39z M11.005,18.947c0-4.415,3.579-8.008,7.978-8.008H141.31
			c4.398,0,7.978,3.594,7.978,8.008v56.061H11.005V18.947z M18.983,96.365c-4.398,0-7.978-3.593-7.978-8.009v-8.009h138.282v8.009
			c0,4.416-3.579,8.009-7.978,8.009h-2.659h-15.956H102.15H58.144H18.983z M145.681,100.902l-3.266,3.278
			c-0.369-0.166-0.735-0.318-1.105-0.464v-2.013C142.851,101.703,144.304,101.388,145.681,100.902z M120.035,101.703v2.013
			c-0.369,0.146-0.736,0.299-1.105,0.464l-2.469-2.477H120.035z M111.034,101.703l-2.292,2.301l-1.561-2.301H111.034z
			 M96.102,133.738H38.928c-2.199,0-3.988-1.797-3.988-4.004s1.789-4.005,3.988-4.005h3.989h2.309h50.877V133.738z M49.683,120.387
			l10.045-18.684h41.018l4.169,6.143l-4.327,4.344c-1.04,1.043-1.04,2.73,0,3.774l3.3,3.312c-0.165,0.371-0.316,0.74-0.463,1.111
			h-4.665H49.683z M159.924,136.407h-3.879c-1.161,0-2.186,0.755-2.537,1.866c-0.404,1.29-0.95,2.603-1.621,3.895
			c-0.539,1.036-0.344,2.298,0.477,3.124l2.756,2.766l-7.521,7.55l-2.755-2.767c-0.824-0.824-2.079-1.017-3.11-0.48
			c-1.287,0.676-2.596,1.223-3.881,1.629c-1.108,0.355-1.862,1.383-1.862,2.549v3.895h-10.636v-3.895
			c0-1.167-0.753-2.194-1.859-2.547c-1.284-0.405-2.592-0.953-3.88-1.628c-1.032-0.536-2.29-0.344-3.112,0.48l-2.755,2.766
			l-7.52-7.55l2.755-2.765c0.822-0.825,1.016-2.088,0.479-3.124c-0.673-1.292-1.218-2.606-1.623-3.896
			c-0.354-1.113-1.377-1.868-2.54-1.868h-3.879v-10.679h3.879c1.163,0,2.186-0.755,2.537-1.866c0.404-1.289,0.95-2.602,1.622-3.894
			c0.538-1.036,0.343-2.298-0.479-3.124l-2.754-2.766l7.52-7.549l2.755,2.765c0.822,0.828,2.08,1.021,3.112,0.48
			c1.286-0.675,2.595-1.223,3.879-1.628c1.108-0.355,1.861-1.382,1.861-2.549v-3.895h10.636v3.895c0,1.167,0.754,2.193,1.859,2.546
			c1.285,0.406,2.593,0.953,3.881,1.628c1.032,0.54,2.286,0.347,3.11-0.48l2.755-2.766l7.521,7.549l-2.755,2.766
			c-0.821,0.824-1.016,2.087-0.478,3.123c0.671,1.292,1.217,2.606,1.621,3.896c0.354,1.113,1.379,1.868,2.54,1.868h3.879V136.407z"
			/>
	</g>
</g>
<g>
	<g>
		<path fill="#9F9798" d="M130.673,115.051c-8.799,0-15.956,7.183-15.956,16.017c0,8.833,7.156,16.018,15.956,16.018
			c8.8,0,15.957-7.185,15.957-16.018C146.629,122.234,139.473,115.051,130.673,115.051z M130.673,141.746
			c-5.866,0-10.638-4.789-10.638-10.678s4.772-10.678,10.638-10.678c5.867,0,10.637,4.79,10.637,10.678
			S136.54,141.746,130.673,141.746z"/>
	</g>
</g>
<g>
	<g>
		<path fill="#9F9798" d="M58.093,26.174l-3.76-3.774L35.718,41.086c-1.04,1.044-1.04,2.731,0,3.775l18.615,18.687l3.76-3.775
			L41.358,42.973L58.093,26.174z"/>
	</g>
</g>
<g>
	<g>
		<path fill="#9F9798" d="M116.597,41.086L97.982,22.4l-3.761,3.774l16.735,16.8L94.222,59.773l3.761,3.775l18.615-18.687
			C117.637,43.817,117.637,42.13,116.597,41.086z"/>
	</g>
</g>
<g>
	<g>
		<polygon fill="#9F9798" points="61.81,63.137 85.736,15.099 90.493,17.487 66.566,65.524 		"/>
	</g>
</g>
<g>
	<g>
		<rect x="109.399" y="58.99" fill="#9F9798" width="5.318" height="5.339"/>
	</g>
</g>
<g>
	<g>
		<rect x="120.035" y="58.99" fill="#9F9798" width="5.319" height="5.339"/>
	</g>
</g>
<g>
	<g>
		<rect x="130.673" y="58.99" fill="#9F9798" width="5.318" height="5.339"/>
	</g>
</g>
</svg>
