<?xml version="1.0" encoding="utf-8"?>
<!-- Generator: Adobe Illustrator 16.0.0, SVG Export Plug-In . SVG Version: 6.00 Build 0)  -->
<!DOCTYPE svg PUBLIC "-//W3C//DTD SVG 1.1//EN" "http://www.w3.org/Graphics/SVG/1.1/DTD/svg11.dtd">
<svg version="1.1" id="Layer_1" xmlns="http://www.w3.org/2000/svg" xmlns:xlink="http://www.w3.org/1999/xlink" x="0px" y="0px"
	 width="163.508px" height="164px" viewBox="-7.77 -1.567 163.508 164" enable-background="new -7.77 -1.567 163.508 164"
	 xml:space="preserve">
<g>
	<g>
		<path fill="#9F9798" d="M143.763,78.315V17.028c0-7.68-5.832-13.928-13-13.928h-114.4c-7.168,0-13,6.248-13,13.928v41.786
			c-4.301,0-7.8,3.75-7.8,8.358v83.572c0,4.607,3.499,8.356,7.8,8.356h57.2c4.3,0,7.8-3.75,7.8-8.356h21.79
			c2.453,0,4.711-1.198,6.198-3.285c1.487-2.086,1.971-4.739,1.327-7.271l-5.113-20.088h14.796v30.644
			c0,4.607,3.501,8.356,7.802,8.356h28.599c4.301,0,7.801-3.75,7.801-8.356V86.671C151.564,82.064,148.064,78.315,143.763,78.315z
			 M63.163,150.743c0,1.535-1.166,2.786-2.599,2.786h-57.2c-1.432,0-2.601-1.251-2.601-2.786v-5.572h62.4V150.743z M63.163,139.6
			h-62.4V78.315h62.4V139.6z M63.163,72.743h-62.4v-5.571c0-1.535,1.168-2.786,2.601-2.786h57.2c1.433,0,2.599,1.25,2.599,2.786
			V72.743z M92.663,141.654c0.216,0.843,0.055,1.727-0.442,2.422c-0.496,0.698-1.247,1.096-2.067,1.096h-21.79V139.6h23.777
			L92.663,141.654z M68.364,134.029v-13.929h18.812l3.547,13.929H68.364z M107.362,114.529H68.364V97.815h38.999V114.529z
			 M107.362,86.671v5.571H68.364V67.172c0-4.608-3.5-8.358-7.8-8.358h-52V17.028c0-4.607,3.499-8.356,7.8-8.356h114.4
			c4.301,0,7.8,3.75,7.8,8.356v61.287h-23.399C110.863,78.315,107.362,82.064,107.362,86.671z M146.364,150.743
			c0,1.535-1.169,2.786-2.601,2.786h-28.599c-1.433,0-2.6-1.251-2.6-2.786v-5.572h33.8V150.743z M146.364,139.6h-33.8V97.815h33.8
			V139.6z M146.364,92.242h-33.8v-5.571c0-1.535,1.167-2.786,2.6-2.786h28.599c1.432,0,2.601,1.251,2.601,2.786V92.242z"/>
	</g>
</g>
<g>
	<g>
		<polygon fill="#9F9798" points="9.325,118.128 19.725,106.985 23.401,110.925 13,122.067 		"/>
	</g>
</g>
<g>
	<g>
		<polygon fill="#9F9798" points="19.724,126.485 50.924,93.057 54.601,96.995 23.399,130.425 		"/>
	</g>
</g>
<g>
	<g>
		<polygon fill="#9F9798" points="24.923,101.417 40.521,84.704 44.198,88.643 28.6,105.356 		"/>
	</g>
</g>
<g>
	<g>
		<polygon fill="#9F9798" points="118.52,118.132 131.517,104.206 135.194,108.146 122.196,122.072 		"/>
	</g>
</g>
<g>
	<g>
		<polygon fill="#9F9798" points="123.719,129.287 136.716,115.361 140.393,119.3 127.396,133.227 		"/>
	</g>
</g>
<g>
	<g>
		<polygon fill="#9F9798" points="63.922,51.273 79.521,34.56 83.197,38.499 67.599,55.214 		"/>
	</g>
</g>
<g>
	<g>
		<polygon fill="#9F9798" points="87.322,45.702 102.922,28.989 106.6,32.928 91,49.641 		"/>
	</g>
</g>
<g>
	<g>
		<polygon fill="#9F9798" points="71.722,62.42 82.122,51.276 85.799,55.217 75.398,66.359 		"/>
	</g>
</g>
<g>
	<g>
		<polygon fill="#9F9798" points="84.708,29.023 95.132,17.852 98.809,21.792 88.383,32.962 		"/>
	</g>
</g>
<g>
	<g>
		<rect x="13.764" y="14.243" fill="#9F9798" width="5.2" height="5.569"/>
	</g>
</g>
<g>
	<g>
		<rect x="24.164" y="14.243" fill="#9F9798" width="5.2" height="5.569"/>
	</g>
</g>
<g>
	<g>
		<rect x="34.563" y="14.243" fill="#9F9798" width="5.2" height="5.569"/>
	</g>
</g>
</svg>
