<?xml version="1.0" encoding="utf-8"?>
<!-- Generator: Adobe Illustrator 16.0.0, SVG Export Plug-In . SVG Version: 6.00 Build 0)  -->
<!DOCTYPE svg PUBLIC "-//W3C//DTD SVG 1.1//EN" "http://www.w3.org/Graphics/SVG/1.1/DTD/svg11.dtd">
<svg version="1.1" id="Layer_1" xmlns="http://www.w3.org/2000/svg" xmlns:xlink="http://www.w3.org/1999/xlink" x="0px" y="0px"
	 width="141.732px" height="165.1px" viewBox="0 0 141.732 165.1" enable-background="new 0 0 141.732 165.1" xml:space="preserve">
<g>
	<g>
		<g>
			<path fill="#9F9798" d="M131.611,27.389L107.699,3.477c-0.48-0.483-1.146-0.781-1.882-0.781H28.751
				c-7.326,0-13.287,5.96-13.287,13.287v114.27c0,7.327,5.961,13.287,13.287,13.287h29.232v18.603h5.315V143.54h39.861
				c1.468,0,2.657-1.188,2.657-2.658v-13.286c0-4.943,3.394-9.112,7.973-10.292v23.578v21.261h5.315V143.54
				c7.326,0,13.286-5.96,13.286-13.287V29.271C132.391,28.534,132.094,27.87,131.611,27.389z M108.475,11.769l14.845,14.844h-14.845
				V11.769z M127.077,130.253c0,4.396-3.576,7.973-7.972,7.973v-23.917c0-1.47-1.19-2.658-2.657-2.658
				c-8.794,0-15.945,7.151-15.945,15.945v10.63H28.751c-4.395,0-7.972-3.577-7.972-7.973V15.984c0-4.396,3.577-7.973,7.972-7.973
				h74.408v21.26c0,1.47,1.19,2.657,2.657,2.657h21.26V130.253z"/>
			<path fill="#9F9798" d="M119.23,162.268h-5.565v-44.801c-4.556,1.248-7.723,5.39-7.723,10.129v13.286
				c0,1.535-1.248,2.783-2.782,2.783H63.423v18.603h-5.565v-18.603H28.751c-7.396,0-13.412-6.017-13.412-13.412V15.984
				c0-7.396,6.017-13.412,13.412-13.412h77.065c0.747,0,1.446,0.291,1.971,0.818l23.912,23.912c0.527,0.523,0.817,1.223,0.817,1.97
				v100.982c0,7.354-5.948,13.345-13.286,13.412V162.268z M113.915,162.018h5.065v-18.603h0.125c7.257,0,13.161-5.904,13.161-13.162
				V29.271c0-0.68-0.264-1.316-0.743-1.792L107.61,3.566c-0.477-0.48-1.114-0.744-1.793-0.744H28.751
				c-7.258,0-13.162,5.904-13.162,13.162v114.27c0,7.258,5.904,13.162,13.162,13.162h29.357v18.603h5.065v-18.603h39.986
				c1.396,0,2.532-1.136,2.532-2.533v-13.286c0-4.908,3.317-9.189,8.066-10.413l0.156-0.04V162.018z M119.105,138.351h-0.125
				v-24.042c0-1.397-1.136-2.533-2.532-2.533c-8.723,0-15.82,7.097-15.82,15.82v10.755H28.751c-4.465,0-8.097-3.633-8.097-8.098
				V15.984c0-4.465,3.632-8.098,8.097-8.098h74.533v21.385c0,1.396,1.136,2.532,2.532,2.532h21.385v98.45
				C127.202,134.718,123.569,138.351,119.105,138.351z M28.751,8.136c-4.327,0-7.847,3.521-7.847,7.848v114.27
				c0,4.327,3.52,7.848,7.847,7.848h71.626v-10.505c0-8.861,7.209-16.07,16.07-16.07c1.534,0,2.782,1.249,2.782,2.783V138.1
				c4.27-0.067,7.722-3.561,7.722-7.847v-98.2h-21.135c-1.534,0-2.782-1.248-2.782-2.782V8.136H28.751z M123.622,26.738H108.35
				V11.467L123.622,26.738z M108.6,26.488h14.418L108.6,12.071V26.488z"/>
		</g>
	</g>
</g>
<g>
	<g>
		<g>
			<path fill="#9F9798" d="M68.613,18.641H31.409c-1.467,0-2.658,1.188-2.658,2.658v37.204c0,1.469,1.191,2.657,2.658,2.657h10.63
				h15.944h10.63c1.467,0,2.658-1.188,2.658-2.657V21.299C71.271,19.828,70.08,18.641,68.613,18.641z M55.326,55.845H44.697v-5.314
				c0-2.932,2.383-5.315,5.314-5.315s5.315,2.384,5.315,5.315V55.845z M47.354,37.242c0-1.466,1.193-2.657,2.657-2.657
				s2.658,1.191,2.658,2.657c0,1.467-1.193,2.658-2.658,2.658S47.354,38.71,47.354,37.242z M65.956,55.845h-5.314v-5.314
				c0-3.484-1.706-6.551-4.303-8.491c1.018-1.339,1.645-2.989,1.645-4.797c0-4.395-3.577-7.972-7.972-7.972
				s-7.972,3.577-7.972,7.972c0,1.808,0.627,3.458,1.645,4.797c-2.597,1.94-4.303,5.007-4.303,8.491v5.314h-5.315v-31.89h31.889
				V55.845z"/>
			<path fill="#9F9798" d="M68.613,61.284H31.409c-1.534,0-2.783-1.248-2.783-2.782V21.299c0-1.534,1.249-2.783,2.783-2.783h37.204
				c1.534,0,2.783,1.249,2.783,2.783v37.204C71.396,60.036,70.147,61.284,68.613,61.284z M31.409,18.766
				c-1.396,0-2.533,1.136-2.533,2.533v37.204c0,1.396,1.136,2.532,2.533,2.532h37.204c1.396,0,2.533-1.136,2.533-2.532V21.299
				c0-1.396-1.136-2.533-2.533-2.533H31.409z M66.081,55.97h-5.564v-5.439c0-3.313-1.55-6.372-4.252-8.391l-0.101-0.075l0.076-0.101
				c1.06-1.394,1.62-3.026,1.62-4.721c0-4.327-3.52-7.847-7.847-7.847s-7.847,3.52-7.847,7.847c0,1.695,0.56,3.327,1.62,4.721
				l0.076,0.101l-0.101,0.075c-2.703,2.02-4.252,5.078-4.252,8.391v5.439h-5.565V23.83h32.139V55.97z M60.766,55.72h5.064V24.08
				H34.191v31.64h5.065v-5.189c0-3.352,1.548-6.448,4.253-8.516c-1.044-1.416-1.595-3.063-1.595-4.772
				c0-4.464,3.632-8.097,8.097-8.097s8.097,3.632,8.097,8.097c0,1.71-0.551,3.357-1.595,4.772c2.705,2.068,4.253,5.165,4.253,8.516
				V55.72z M55.451,55.97H44.572v-5.439c0-3,2.44-5.44,5.439-5.44s5.44,2.44,5.44,5.44V55.97z M44.822,55.72h10.379v-5.189
				c0-2.862-2.328-5.19-5.19-5.19c-2.861,0-5.189,2.329-5.189,5.19V55.72z M50.011,40.026c-1.534,0-2.782-1.249-2.782-2.783
				c0-1.534,1.248-2.782,2.782-2.782s2.783,1.248,2.783,2.782C52.794,38.777,51.545,40.026,50.011,40.026z M50.011,34.71
				c-1.396,0-2.532,1.136-2.532,2.532c0,1.397,1.136,2.533,2.532,2.533s2.533-1.136,2.533-2.533
				C52.544,35.846,51.408,34.71,50.011,34.71z"/>
		</g>
	</g>
</g>
<g>
	<g>
		<g>
			<rect x="76.585" y="26.613" fill="#9F9798" width="13.288" height="5.315"/>
			<path fill="#9F9798" d="M89.999,32.053H76.46v-5.565h13.538V32.053z M76.71,31.803h13.038v-5.065H76.71V31.803z"/>
		</g>
	</g>
</g>
<g>
	<g>
		<g>
			<rect x="76.585" y="37.242" fill="#9F9798" width="15.944" height="5.315"/>
			<path fill="#9F9798" d="M92.655,42.682H76.46v-5.565h16.194V42.682z M76.71,42.432h15.694v-5.065H76.71V42.432z"/>
		</g>
	</g>
</g>
<g>
	<g>
		<g>
			<rect x="97.845" y="37.242" fill="#9F9798" width="13.287" height="5.315"/>
			<path fill="#9F9798" d="M111.257,42.682H97.72v-5.565h13.537V42.682z M97.97,42.432h13.037v-5.065H97.97V42.432z"/>
		</g>
	</g>
</g>
<g>
	<g>
		<g>
			<rect x="76.585" y="47.873" fill="#9F9798" width="34.547" height="5.315"/>
			<path fill="#9F9798" d="M111.257,53.313H76.46v-5.565h34.797V53.313z M76.71,53.063h34.297v-5.065H76.71V53.063z"/>
		</g>
	</g>
</g>
<g>
	<g>
		<g>
			<rect x="42.039" y="69.132" fill="#9F9798" width="21.259" height="5.314"/>
			<path fill="#9F9798" d="M63.423,74.572H41.914v-5.564h21.509V74.572z M42.164,74.322h21.009v-5.064H42.164V74.322z"/>
		</g>
	</g>
</g>
<g>
	<g>
		<g>
			<rect x="68.613" y="69.132" fill="#9F9798" width="15.945" height="5.314"/>
			<path fill="#9F9798" d="M84.683,74.572H68.488v-5.564h16.195V74.572z M68.738,74.322h15.695v-5.064H68.738V74.322z"/>
		</g>
	</g>
</g>
<g>
	<g>
		<g>
			<rect x="89.874" y="69.132" fill="#9F9798" width="26.574" height="5.314"/>
			<path fill="#9F9798" d="M116.573,74.572H89.749v-5.564h26.824V74.572z M89.999,74.322h26.324v-5.064H89.999V74.322z"/>
		</g>
	</g>
</g>
<g>
	<g>
		<g>
			<rect x="31.409" y="79.762" fill="#9F9798" width="21.26" height="5.314"/>
			<path fill="#9F9798" d="M52.794,85.201h-21.51v-5.564h21.51V85.201z M31.534,84.951h21.01v-5.064h-21.01V84.951z"/>
		</g>
	</g>
</g>
<g>
	<g>
		<g>
			<rect x="57.983" y="79.762" fill="#9F9798" width="42.519" height="5.314"/>
			<path fill="#9F9798" d="M100.627,85.201H57.858v-5.564h42.769V85.201z M58.108,84.951h42.269v-5.064H58.108V84.951z"/>
		</g>
	</g>
</g>
<g>
	<g>
		<g>
			<rect x="105.817" y="79.762" fill="#9F9798" width="10.631" height="5.314"/>
			<path fill="#9F9798" d="M116.573,85.201h-10.881v-5.564h10.881V85.201z M105.942,84.951h10.381v-5.064h-10.381V84.951z"/>
		</g>
	</g>
</g>
<g>
	<g>
		<g>
			<rect x="31.409" y="90.392" fill="#9F9798" width="10.63" height="5.314"/>
			<path fill="#9F9798" d="M42.164,95.831h-10.88v-5.564h10.88V95.831z M31.534,95.581h10.38v-5.064h-10.38V95.581z"/>
		</g>
	</g>
</g>
<g>
	<g>
		<g>
			<rect x="47.354" y="90.392" fill="#9F9798" width="31.89" height="5.314"/>
			<path fill="#9F9798" d="M79.369,95.831h-32.14v-5.564h32.14V95.831z M47.479,95.581h31.64v-5.064h-31.64V95.581z"/>
		</g>
	</g>
</g>
<g>
	<g>
		<g>
			<rect x="84.558" y="90.392" fill="#9F9798" width="31.89" height="5.314"/>
			<path fill="#9F9798" d="M116.573,95.831h-32.14v-5.564h32.14V95.831z M84.683,95.581h31.64v-5.064h-31.64V95.581z"/>
		</g>
	</g>
</g>
<g>
	<g>
		<g>
			<rect x="31.409" y="101.021" fill="#9F9798" width="10.63" height="5.315"/>
			<path fill="#9F9798" d="M42.164,106.461h-10.88v-5.565h10.88V106.461z M31.534,106.211h10.38v-5.065h-10.38V106.211z"/>
		</g>
	</g>
</g>
<g>
	<g>
		<g>
			<rect x="47.354" y="101.021" fill="#9F9798" width="31.89" height="5.315"/>
			<path fill="#9F9798" d="M79.369,106.461h-32.14v-5.565h32.14V106.461z M47.479,106.211h31.64v-5.065h-31.64V106.211z"/>
		</g>
	</g>
</g>
<g>
	<g>
		<g>
			<rect x="84.558" y="101.021" fill="#9F9798" width="31.89" height="5.315"/>
			<path fill="#9F9798" d="M116.573,106.461h-32.14v-5.565h32.14V106.461z M84.683,106.211h31.64v-5.065h-31.64V106.211z"/>
		</g>
	</g>
</g>
<g>
	<g>
		<g>
			<rect x="31.409" y="111.651" fill="#9F9798" width="23.917" height="5.315"/>
			<path fill="#9F9798" d="M55.451,117.091H31.284v-5.565h24.167V117.091z M31.534,116.841h23.667v-5.065H31.534V116.841z"/>
		</g>
	</g>
</g>
<g>
	<g>
		<g>
			<rect x="60.641" y="111.651" fill="#9F9798" width="37.204" height="5.315"/>
			<path fill="#9F9798" d="M97.97,117.091H60.516v-5.565H97.97V117.091z M60.766,116.841H97.72v-5.065H60.766V116.841z"/>
		</g>
	</g>
</g>
<g>
	<g>
		<g>
			<rect x="31.409" y="122.281" fill="#9F9798" width="10.63" height="5.315"/>
			<path fill="#9F9798" d="M42.164,127.721h-10.88v-5.565h10.88V127.721z M31.534,127.471h10.38v-5.065h-10.38V127.471z"/>
		</g>
	</g>
</g>
<g>
	<g>
		<g>
			<rect x="47.354" y="122.281" fill="#9F9798" width="45.176" height="5.315"/>
			<path fill="#9F9798" d="M92.655,127.721H47.229v-5.565h45.426V127.721z M47.479,127.471h44.926v-5.065H47.479V127.471z"/>
		</g>
	</g>
</g>
</svg>
